<svg xmlns="http://www.w3.org/2000/svg" version="1.1" xmlns:xlink="http://www.w3.org/1999/xlink" xmlns:svgjs="http://svgjs.com/svgjs" width="100%" height="100%" viewBox="0 0 1000 600"><rect width="1000" height="600" x="0" y="0" fill="#000000"/><g><rect width="333.3333333333333" height="333.3333333333333" rx="13.333333333333334" ry="13.333333333333334" y="229.80951343584806" fill="#2c2e43" transform="matrix(0.6021562958214333,0,0,0.6021562958214332,0,61.25935669441181)" x="207.58724975585938"/><path d="M418.80883799044284 321.4761930723424L446.7444437819432 321.4761930723424L446.7444437819432 471.47619162738135L429.4780298068577 471.47619162738135L429.4780298068577 377.15801071777355L431.5297974638605 337.60624342201095L431.30883787002944 337.60624342201095L381.97171713317636 471.47619162738135L366.5361112212627 471.47619162738135L317.19899048440953 337.60624342201095L316.97803089057845 337.60624342201095L319.0297985475813 377.15801071777355L319.0297985475813 471.47619162738135L301.76338457249585 471.47619162738135L301.76338457249585 321.4761930723424L329.69899036399613 321.4761930723424L362.653535501088 412.6062426995304L374.01717175525766 450.10624233829014L374.49065659918136 450.10624233829014L386.0752524471821 412.8272022933615L418.80883799044284 321.4761930723424Z " fill="#b2b1b9" transform="matrix(0.6021562958214333,0,0,0.6021562958214332,0,61.25935669441181)"/><path d="M712.5396310493229 321.47619271729485L733.6110596207515 321.47619271729485L733.6110596207515 434.619049860152L720.5872500969418 434.619049860152L720.5872500969418 363.47619271729485L722.1348691445609 333.64285938396154L721.9682024778944 333.64285938396154L684.7539167636085 434.619049860152L673.1110596207513 434.619049860152L635.8967739064657 333.64285938396154L635.730107239799 333.64285938396154L637.2777262874181 363.47619271729485L637.2777262874181 434.619049860152L624.2539167636086 434.619049860152L624.2539167636086 321.47619271729485L645.3253453350371 321.47619271729485L670.18248819218 390.2142879553901L678.7539167636086 418.5000022411044L679.1110596207513 418.5000022411044L687.8491548588466 390.3809546220568L712.5396310493229 321.47619271729485ZM858.9205834302753 321.47619271729485L880.0158215255134 321.47619271729485L880.0158215255134 434.619049860152L866.9920120017038 434.619049860152L866.9920120017038 363.47619271729485L868.5396310493228 333.64285938396154L868.3491548588466 333.64285938396154L831.1586786683705 434.619049860152L819.4920120017038 434.619049860152L782.3015358112276 333.64285938396154L782.1348691445609 333.64285938396154L783.6824881921799 363.47619271729485L783.6824881921799 434.619049860152L770.6348691445609 434.619049860152L770.6348691445609 321.47619271729485L791.7301072397989 321.47619271729485L816.5872500969418 390.2142879553901L825.1586786683705 418.5000022411044L825.4920120017038 418.5000022411044L834.2539167636086 390.3809546220568L858.9205834302753 321.47619271729485ZM917.0396310493228 321.47619271729485L953.5634405731324 321.47619271729485Q980.1348691445609 321.47619271729485 995.3015358112276 336.14285938396154Q1010.4682024778944 350.78571652681865 1010.4682024778944 378.0476212887234L1010.4682024778944 378.0476212887234Q1010.4682024778944 405.30952605062816 995.3015358112276 419.95238319348533Q980.1348691445609 434.619049860152 953.5634405731324 434.619049860152L953.5634405731324 434.619049860152L917.0396310493228 434.619049860152L917.0396310493228 321.47619271729485ZM930.7539167636086 421.7619070030091L954.9205834302751 421.7619070030091Q974.3015358112276 421.7619070030091 985.1824881921799 410.1904784315806Q996.0634405731324 398.619049860152 996.0634405731324 378.0476212887234L996.0634405731324 378.0476212887234Q996.0634405731324 357.47619271729485 985.1824881921799 345.9047641458663Q974.3015358112276 334.3333355744377 954.9205834302751 334.3333355744377L954.9205834302751 334.3333355744377L930.7539167636086 334.3333355744377L930.7539167636086 421.7619070030091ZM1113.4920120017036 321.47619271729485L1127.2062977159894 321.47619271729485L1127.2062977159894 392.45238319348533Q1127.2062977159894 414.2142879553901 1115.730107239799 425.28571652681865Q1104.2539167636087 436.3333355744377 1082.8253453350371 436.3333355744377L1082.8253453350371 436.3333355744377Q1061.5634405731325 436.3333355744377 1049.9920120017036 425.28571652681865Q1038.4205834302752 414.2142879553901 1038.4205834302752 392.45238319348533L1038.4205834302752 392.45238319348533L1038.4205834302752 321.47619271729485L1052.134869144561 321.47619271729485L1052.134869144561 389.0238117649139Q1052.134869144561 406.66666890777105 1059.5872500969417 415.071430812533Q1067.039631049323 423.47619271729485 1082.8253453350371 423.47619271729485L1082.8253453350371 423.47619271729485Q1098.5872500969417 423.47619271729485 1106.039631049323 415.071430812533Q1113.4920120017036 406.66666890777105 1113.4920120017036 389.0238117649139L1113.4920120017036 389.0238117649139L1113.4920120017036 321.47619271729485ZM1166.3015358112275 414.04762128872346L1166.3015358112275 414.04762128872346Q1171.2777262874179 414.04762128872346 1174.3491548588468 417.14285938396154Q1177.4443929540848 420.2142879553901 1177.4443929540848 425.1904784315806L1177.4443929540848 425.1904784315806Q1177.4443929540848 430.16666890777105 1174.3491548588468 433.2380974791996Q1171.2777262874179 436.3333355744377 1166.3015358112275 436.3333355744377L1166.3015358112275 436.3333355744377Q1161.3253453350371 436.3333355744377 1158.2539167636087 433.2380974791996Q1155.1586786683706 430.16666890777105 1155.1586786683706 425.1904784315806L1155.1586786683706 425.1904784315806Q1155.1586786683706 420.2142879553901 1158.2539167636087 417.14285938396154Q1161.3253453350371 414.04762128872346 1166.3015358112275 414.04762128872346ZM1240.539631049323 347.1904784315806L1240.539631049323 347.1904784315806Q1252.7062977159894 347.1904784315806 1262.039631049323 352.50000224110437Q1271.3967739064656 357.8095260506282 1276.7062977159894 367.85714509824726Q1282.0158215255133 377.8809546220568 1282.0158215255133 391.7619070030091L1282.0158215255133 391.7619070030091Q1282.0158215255133 405.64285938396154 1276.7062977159894 415.66666890777105Q1271.3967739064656 425.7142879553901 1262.039631049323 431.0238117649139Q1252.7062977159894 436.3333355744377 1240.539631049323 436.3333355744377L1240.539631049323 436.3333355744377Q1228.539631049323 436.3333355744377 1219.1110596207513 431.0238117649139Q1209.6824881921798 425.7142879553901 1204.3491548588468 415.66666890777105Q1199.039631049323 405.64285938396154 1199.039631049323 391.7619070030091L1199.039631049323 391.7619070030091Q1199.039631049323 377.8809546220568 1204.3491548588468 367.85714509824726Q1209.6824881921798 357.8095260506282 1219.1110596207513 352.50000224110437Q1228.539631049323 347.1904784315806 1240.539631049323 347.1904784315806ZM1240.539631049323 359.0238117649139L1240.539631049323 359.0238117649139Q1231.7777262874179 359.0238117649139 1225.6110596207513 362.95238319348533Q1219.4443929540848 366.9047641458663 1216.1110596207513 374.1904784315806Q1212.7539167636082 381.47619271729485 1212.7539167636082 391.7619070030091L1212.7539167636082 391.7619070030091Q1212.7539167636082 401.8809546220568 1216.1110596207513 409.2380974791996Q1219.4443929540848 416.619049860152 1225.6110596207513 420.571430812533Q1231.7777262874179 424.50000224110437 1240.539631049323 424.50000224110437L1240.539631049323 424.50000224110437Q1249.2777262874179 424.50000224110437 1255.4443929540848 420.571430812533Q1261.6110596207513 416.619049860152 1264.968202477894 409.2380974791996Q1268.3015358112275 401.8809546220568 1268.3015358112275 391.7619070030091L1268.3015358112275 391.7619070030091Q1268.3015358112275 381.47619271729485 1264.968202477894 374.1904784315806Q1261.6110596207513 366.9047641458663 1255.4443929540848 362.95238319348533Q1249.2777262874179 359.0238117649139 1240.539631049323 359.0238117649139ZM1321.6110596207513 434.619049860152L1307.8967739064656 434.619049860152L1307.8967739064656 348.9047641458663L1319.039631049323 348.9047641458663L1320.9205834302752 362.95238319348533Q1324.539631049323 355.071430812533 1331.468202477894 351.14285938396154Q1338.4205834302752 347.1904784315806 1348.3491548588463 347.1904784315806L1348.3491548588463 347.1904784315806Q1350.5872500969417 347.1904784315806 1353.2539167636082 347.52381176491394Q1355.8967739064656 347.8809546220568 1357.7777262874179 348.9047641458663L1357.7777262874179 348.9047641458663L1355.3967739064656 361.4285736696758Q1353.4920120017036 360.7380974791996 1351.2777262874179 360.3809546220568Q1349.039631049323 360.0476212887234 1344.9205834302752 360.0476212887234L1344.9205834302752 360.0476212887234Q1339.6110596207513 360.0476212887234 1334.2062977159894 363.14285938396154Q1328.8253453350371 366.2142879553901 1325.2062977159894 372.47619271729485Q1321.6110596207513 378.7380974791996 1321.6110596207513 388.3333355744377L1321.6110596207513 388.3333355744377L1321.6110596207513 434.619049860152ZM1450.0158215255133 333.14285938396154L1450.0158215255133 333.14285938396154L1453.1110596207513 345.30952605062816Q1452.9205834302752 345.30952605062816 1452.5872500969417 345.30952605062816Q1452.2539167636087 345.30952605062816 1451.8967739064656 345.30952605062816L1451.8967739064656 345.30952605062816Q1443.4920120017036 345.30952605062816 1438.968202477894 348.64285938396154Q1434.4205834302752 352.00000224110437 1434.4205834302752 359.35714509824726L1434.4205834302752 359.35714509824726L1426.0158215255133 355.071430812533Q1426.0158215255133 348.3809546220568 1429.1110596207513 343.4285736696758Q1432.1824881921798 338.45238319348533 1437.4920120017036 335.78571652681865Q1442.8253453350371 333.14285938396154 1449.1586786683706 333.14285938396154L1449.1586786683706 333.14285938396154Q1449.3253453350371 333.14285938396154 1449.5872500969417 333.14285938396154Q1449.8491548588463 333.14285938396154 1450.0158215255133 333.14285938396154ZM1398.9205834302752 423.64285938396154L1423.9682024778945 423.64285938396154Q1436.134869144561 423.64285938396154 1442.9920120017036 429.2142879553901Q1449.8491548588463 434.78571652681865 1449.8491548588463 444.04762128872346L1449.8491548588463 444.04762128872346Q1449.8491548588463 452.45238319348533 1444.2777262874179 458.619049860152Q1438.7062977159894 464.78571652681865 1429.3491548588468 468.14285938396154Q1420.0158215255133 471.47619271729485 1408.3491548588468 471.47619271729485L1408.3491548588468 471.47619271729485Q1388.134869144561 471.47619271729485 1378.1110596207513 464.619049860152Q1368.0634405731325 457.7619070030091 1368.0634405731325 448.16666890777105L1368.0634405731325 448.16666890777105Q1368.0634405731325 441.30952605062816 1372.6110596207513 435.9047641458663Q1377.1586786683706 430.5000022411044 1387.9682024778945 429.80952605062816L1387.9682024778945 429.80952605062816L1386.7539167636082 432.3809546220568Q1380.9205834302752 430.85714509824726 1376.8967739064656 427.16666890777105Q1372.872964382656 423.47619271729485 1372.872964382656 416.45238319348533L1372.872964382656 416.45238319348533Q1372.872964382656 409.4285736696758 1378.1110596207513 404.35714509824726Q1383.3253453350371 399.30952605062816 1393.6110596207513 398.09524033634244L1393.6110596207513 398.09524033634244L1402.7062977159894 402.7380974791996L1400.9920120017036 402.7380974791996Q1392.5872500969417 403.5952403363425 1389.0634405731325 406.9285736696758Q1385.563440573132 410.28571652681865 1385.563440573132 414.2142879553901L1385.563440573132 414.2142879553901Q1385.563440573132 419.0238117649139 1389.0634405731325 421.3333355744377Q1392.5872500969417 423.64285938396154 1398.9205834302752 423.64285938396154L1398.9205834302752 423.64285938396154ZM1408.1824881921798 460.00000224110437L1408.1824881921798 460.00000224110437Q1418.134869144561 460.00000224110437 1424.5634405731325 457.9285736696758Q1430.9920120017036 455.8809546220568 1434.063440573132 452.619049860152Q1437.1586786683706 449.35714509824726 1437.1586786683706 445.5952403363425L1437.1586786683706 445.5952403363425Q1437.1586786683706 440.95238319348533 1433.468202477894 438.2142879553901Q1429.7777262874179 435.47619271729485 1420.1824881921798 435.47619271729485L1420.1824881921798 435.47619271729485L1393.7777262874179 435.47619271729485Q1388.3015358112275 435.47619271729485 1384.539631049323 438.30952605062816Q1380.7539167636082 441.14285938396154 1380.7539167636082 446.0952403363425L1380.7539167636082 446.0952403363425Q1380.7539167636082 452.45238319348533 1388.039631049323 456.2142879553901Q1395.3253453350371 460.00000224110437 1408.1824881921798 460.00000224110437ZM1406.9920120017036 347.1904784315806L1406.9920120017036 347.1904784315806Q1417.2777262874179 347.1904784315806 1425.2539167636082 350.8809546220567Q1433.2062977159894 354.571430812533 1437.6824881921798 361.071430812533Q1442.134869144561 367.5952403363425 1442.134869144561 376.16666890777105L1442.134869144561 376.16666890777105Q1442.134869144561 384.571430812533 1437.6824881921798 391.16666890777105Q1433.2062977159894 397.7619070030091 1425.2539167636082 401.45238319348533Q1417.2777262874179 405.14285938396154 1406.9920120017036 405.14285938396154L1406.9920120017036 405.14285938396154Q1390.0158215255133 405.14285938396154 1380.9205834302752 397.00000224110437Q1371.8491548588468 388.85714509824726 1371.8491548588468 376.16666890777105L1371.8491548588468 376.16666890777105Q1371.8491548588468 367.5952403363425 1376.3967739064656 361.071430812533Q1380.9205834302752 354.571430812533 1388.8253453350371 350.8809546220567Q1396.7062977159894 347.1904784315806 1406.9920120017036 347.1904784315806ZM1406.9920120017036 358.33333557443774L1406.9920120017036 358.33333557443774Q1398.063440573132 358.33333557443774 1392.0634405731325 363.2142879553901Q1386.0634405731325 368.0952403363425 1386.0634405731325 376.16666890777105L1386.0634405731325 376.16666890777105Q1386.0634405731325 384.04762128872346 1392.0634405731325 389.0238117649139Q1398.063440573132 394.00000224110437 1406.9920120017036 394.00000224110437L1406.9920120017036 394.00000224110437Q1415.8967739064656 394.00000224110437 1421.8967739064656 389.0238117649139Q1427.8967739064656 384.04762128872346 1427.8967739064656 376.16666890777105L1427.8967739064656 376.16666890777105Q1427.8967739064656 368.0952403363425 1421.8967739064656 363.2142879553901Q1415.8967739064656 358.33333557443774 1406.9920120017036 358.33333557443774Z " fill="#b2b1b9" transform="matrix(0.6021562958214333,0,0,0.6021562958214332,0,61.25935669441181)"/></g></svg>